#!OML:ASF H:\Punching\Project 1\Capture day 1\Session 1\female.ASF
:FULLY-SPECIFIED
:DEGREES
587
root -13.5986 15.923 31.4936 27.0857 105.509 10.461
lowerback -8.44097 2.49436 6.87104
upperback -6.8545 3.25548 -0.189602
thorax -2.06103 1.53378 -3.83026
lowerneck -3.99143 11.2979 20.755
upperneck 28.9258 22.942 -20.3851
head 16.0835 11.445 -7.93822
rclavicle -4.41364e-015 -7.7526e-015
rhumerus -32.0328 -6.69654 -64.0161
rradius 28.4054
rwrist 4.33668
rhand -19.8314 -11.296
rfingers 7.12502
rthumb 6.50263 -41.1761
lclavicle -4.41364e-015 -7.7526e-015
lhumerus -53.3165 14.3808 65.5728
lradius 30.2781
lwrist -21.9406
lhand -6.52887 13.3029
lfingers 7.12502
lthumb 19.3239 42.3627
rfemur 0.415896 -7.15436 29.0331
rtibia 7.04085
rfoot -12.8197 -31.5128
rtoes -8.99913
lfemur -36.0738 -1.43053 -20.8997
ltibia 22.6314
lfoot -20.3691 32.6536
ltoes 14.4483
588
root -13.5409 15.9129 31.4421 27.2053 105.856 10.5777
lowerback -8.56528 2.65807 6.90705
upperback -6.86733 3.46491 -0.263714
thorax -1.97661 1.64067 -3.90519
lowerneck -4.10347 11.2353 20.7618
upperneck 28.9537 22.8007 -20.302
head 16.0616 11.385 -7.92988
rclavicle -5.08097e-014 -3.97569e-014
rhumerus -31.9582 -6.56384 -64.9682
rradius 28.8828
rwrist 3.95903
rhand -19.6528 -11.1454
rfingers 7.12502
rthumb 6.67499 -41.0202
lclavicle -5.08097e-014 -3.97569e-014
lhumerus -53.5156 14.4398 65.1819
lradius 30.1164
lwrist -22.0577
lhand -6.53348 13.3559
lfingers 7.12502
lthumb 19.3195 42.4162
rfemur 0.805935 -7.2056 28.9948
rtibia 6.86489
rfoot -12.7093 -31.5748
rtoes -9.32105
lfemur -35.8598 -1.34159 -21.076
ltibia 22.7236
lfoot -20.131 32.3605
ltoes 13.8993
589
root -13.481 15.906 31.3877 27.1928 106.163 10.5567
lowerback -8.68758 2.80014 6.88004
upperback -6.89079 3.65065 -0.330317
thorax -1.90987 1.73744 -3.93862
lowerneck -4.17685 11.18 20.7449
upperneck 28.9632 22.6779 -20.2204
head 16.0238 11.333 -7.91467
rclavicle 1.29955e-014 2.69353e-014
rhumerus -31.8718 -6.36071 -65.9444
rradius 29.381
rwrist 3.56693
rhand -19.4652 -10.9902
rfingers 7.12502
rthumb 6.85607 -40.8592
lclavicle 1.29955e-014 2.69353e-014
lhumerus -53.7663 14.5373 64.782
lradius 29.9659
lwrist -22.1531
lhand -6.57319 13.396
lfingers 7.12502
lthumb 19.2813 42.4602
rfemur 1.23718 -7.23717 28.897
rtibia 6.62291
rfoot -12.5707 -31.6559
rtoes -9.56254
lfemur -35.6495 -1.33354 -21.2501
ltibia 22.7764
lfoot -19.9124 32.2314
ltoes 13.3018
590
root -13.4192 15.9018 31.3304 27.056 106.443 10.4124
lowerback -8.79759 2.9148 6.79688
upperback -6.92566 3.80562 -0.389758
thorax -1.86843 1.81995 -3.93626
lowerneck -4.21207 11.1359 20.7133
upperneck 28.9584 22.5788 -20.1377
head 15.975 11.2924 -7.89171
rclavicle 1.41261e-014 -4.96962e-015
rhumerus -31.785 -6.06396 -66.957
rradius 29.9092
rwrist 3.1358
rhand -19.2649 -10.8403
rfingers 7.12502
rthumb 7.04946 -40.7029
lclavicle 1.41261e-014 -4.96962e-015
lhumerus -54.0667 14.6722 64.3626
lradius 29.8177
lwrist -22.2196
lhand -6.58793 13.4232
lfingers 7.12502
lthumb 19.2671 42.4888
rfemur 1.69819 -7.26024 28.7459
rtibia 6.35149
rfoot -12.44 -31.7494
rtoes -9.67549
lfemur -35.4408 -1.39366 -21.4245
ltibia 22.7848
lfoot -19.6576 32.2072
ltoes 12.6945
591
root -13.3558 15.8994 31.2697 26.772 106.725 10.1177
lowerback -8.91911 3.00766 6.69294
upperback -6.95624 3.93151 -0.465443
thorax -1.81962 1.88841 -3.9405
lowerneck -4.23701 11.1013 20.6895
upperneck 28.9383 22.4916 -20.0602
head 15.9226 11.2572 -7.86909
rclavicle 1.64929e-014 -9.64106e-015
rhumerus -31.6914 -5.72916 -68.0126
rradius 30.4612
rwrist 2.68604
rhand -19.0888 -10.707
rfingers 7.12502
rthumb 7.2194 -40.5638
lclavicle 1.64929e-014 -9.64106e-015
lhumerus -54.3771 14.8391 63.9064
lradius 29.6735
lwrist -22.3008
lhand -6.56947 13.4406
lfingers 7.12502
lthumb 19.2849 42.5044
rfemur 2.15894 -7.30325 28.5416
rtibia 6.09934
rfoot -12.3262 -31.8593
rtoes -9.71688
lfemur -35.2356 -1.50757 -21.6219
ltibia 22.76
lfoot -19.312 32.1882
ltoes 12.1818
592
root -13.2912 15.8979 31.2061 26.4001 107.006 9.74032
lowerback -9.04307 3.08431 6.5687
upperback -6.98129 4.03658 -0.54626
thorax -1.76688 1.94704 -3.93988
lowerneck -4.2588 11.0732 20.6679
upperneck 28.9116 22.4127 -19.9846
head 15.8698 11.2253 -7.84541
rclavicle 4.76881e-014 2.28602e-014
rhumerus -31.602 -5.35603 -69.0962
rradius 31.0436
rwrist 2.22297
rhand -18.9238 -10.5876
rfingers 7.12502
rthumb 7.3787 -40.4389
lclavicle 4.76881e-014 2.28602e-014
lhumerus -54.6885 15.0406 63.4181
lradius 29.5199
lwrist -22.419
lhand -6.53428 13.4564
lfingers 7.12502
lthumb 19.3187 42.5168
rfemur 2.58946 -7.35828 28.3022
rtibia 5.93646
rfoot -12.2399 -31.9872
rtoes -9.7589
lfemur -35.0189 -1.56608 -21.8785
ltibia 22.7212
lfoot -18.8148 32.0404
ltoes 11.8428
593
root -13.2254 15.8966 31.1409 26.0289 107.271 9.36698
lowerback -9.16694 3.15792 6.446
upperback -7.0028 4.13726 -0.639927
thorax -1.71018 2.00316 -3.95339
lowerneck -4.29224 11.0486 20.6817
upperneck 28.8894 22.337 -19.9206
head 15.8314 11.1966 -7.83206
rclavicle -4.01118e-014 -2.43511e-015
rhumerus -31.5294 -4.97056 -70.2162
rradius 31.6623
rwrist 1.76289
rhand -18.7582 -10.4704
rfingers 7.12502
rthumb 7.53856 -40.3161
lclavicle -4.01118e-014 -2.43511e-015
lhumerus -54.9879 15.2672 62.8775
lradius 29.3584
lwrist -22.5903
lhand -6.43749 13.4644
lfingers 7.12502
lthumb 19.4118 42.5155
rfemur 2.94198 -7.40107 28.0511
rtibia 5.93757
rfoot -12.1535 -32.1377
rtoes -9.94659
lfemur -34.7857 -1.5082 -22.196
ltibia 22.6871
lfoot -18.1738 31.705
ltoes 11.6935
594
root -13.159 15.895 31.0744 25.7007 107.525 9.04976
lowerback -9.2795 3.22881 6.33852
upperback -7.02048 4.2339 -0.735678
thorax -1.65529 2.05647 -3.9781
lowerneck -4.3265 11.0271 20.7082
upperneck 28.8648 22.2644 -19.8613
head 15.7961 11.1697 -7.82216
rclavicle -4.98421e-014 1.53561e-014
rhumerus -31.4811 -4.55859 -71.3626
rradius 32.3233
rwrist 1.31621
rhand -18.5964 -10.3541
rfingers 7.12502
rthumb 7.69469 -40.1941
lclavicle -4.98421e-014 1.53561e-014
lhumerus -55.2817 15.5198 62.2989
lradius 29.1954
lwrist -22.8184
lhand -6.33926 13.4866
lfingers 7.12502
lthumb 19.5062 42.5281
rfemur 3.20436 -7.43127 27.8018
rtibia 6.14925
rfoot -12.1305 -32.2774
rtoes -10.1975
lfemur -34.5225 -1.23871 -22.6103
ltibia 22.6692
lfoot -17.3453 31.1195
ltoes 11.6638
